<svg width="209" height="80" viewBox="0 0 209 80" fill="none" xmlns="http://www.w3.org/2000/svg">
<rect x="1" y="1" width="207" height="78" rx="7" fill="white"/>
<path d="M59.0935 52.24L46.8802 40L59.0935 27.76L55.3335 24L39.3335 40L55.3335 56L59.0935 52.24Z" fill="#005640"/>
<path d="M108.216 41.32C108.088 41.384 108.088 41.448 108.216 41.512C110.392 42.536 111.48 44.296 111.48 46.792C111.48 48.8187 110.797 50.3653 109.432 51.432C108.088 52.4773 106.328 53 104.152 53H96.0881C95.9815 53 95.8855 52.968 95.8001 52.904C95.7361 52.8187 95.7041 52.7227 95.7041 52.616V30.984C95.7041 30.8773 95.7361 30.792 95.8001 30.728C95.8855 30.6427 95.9815 30.6 96.0881 30.6H103.896C106.221 30.6 108.013 31.1013 109.272 32.104C110.531 33.1067 111.16 34.6213 111.16 36.648C111.16 38.888 110.179 40.4453 108.216 41.32ZM99.5761 33.8C99.4695 33.8 99.4161 33.8533 99.4161 33.96V39.88C99.4161 39.9867 99.4695 40.04 99.5761 40.04H103.896C105.027 40.04 105.912 39.7733 106.552 39.24C107.213 38.6853 107.544 37.928 107.544 36.968C107.544 35.9867 107.213 35.2187 106.552 34.664C105.912 34.088 105.027 33.8 103.896 33.8H99.5761ZM104.152 49.768C105.261 49.768 106.136 49.4693 106.776 48.872C107.437 48.2747 107.768 47.464 107.768 46.44C107.768 45.3947 107.437 44.584 106.776 44.008C106.115 43.4107 105.219 43.112 104.088 43.112H99.5761C99.4695 43.112 99.4161 43.1653 99.4161 43.272V49.608C99.4161 49.7147 99.4695 49.768 99.5761 49.768H104.152ZM129.076 53C128.863 53 128.724 52.8933 128.66 52.68L127.604 49.256C127.561 49.1707 127.508 49.128 127.444 49.128H118.996C118.932 49.128 118.879 49.1707 118.836 49.256L117.78 52.68C117.716 52.8933 117.577 53 117.364 53H114.164C114.036 53 113.94 52.968 113.876 52.904C113.812 52.8187 113.801 52.7013 113.844 52.552L120.788 30.92C120.852 30.7067 120.991 30.6 121.204 30.6H125.204C125.417 30.6 125.556 30.7067 125.62 30.92L132.596 52.552C132.617 52.5947 132.628 52.648 132.628 52.712C132.628 52.904 132.511 53 132.276 53H129.076ZM119.828 46.024C119.807 46.152 119.849 46.216 119.956 46.216H126.452C126.58 46.216 126.623 46.152 126.58 46.024L123.284 35.304C123.263 35.2187 123.231 35.176 123.188 35.176C123.145 35.176 123.113 35.2187 123.092 35.304L119.828 46.024ZM143.503 53.256C141.903 53.256 140.495 52.9467 139.279 52.328C138.063 51.688 137.125 50.8027 136.463 49.672C135.802 48.5413 135.471 47.2293 135.471 45.736V37.832C135.471 36.3387 135.802 35.0267 136.463 33.896C137.125 32.7653 138.063 31.8907 139.279 31.272C140.495 30.6533 141.903 30.344 143.503 30.344C145.082 30.344 146.479 30.6427 147.695 31.24C148.911 31.8373 149.85 32.68 150.511 33.768C151.173 34.856 151.503 36.1147 151.503 37.544C151.503 37.6507 151.461 37.7467 151.375 37.832C151.311 37.896 151.226 37.928 151.119 37.928L148.175 38.088C147.919 38.088 147.791 37.9707 147.791 37.736C147.791 36.4773 147.397 35.464 146.607 34.696C145.839 33.928 144.805 33.544 143.503 33.544C142.202 33.544 141.157 33.928 140.367 34.696C139.578 35.464 139.183 36.4773 139.183 37.736V45.896C139.183 47.1333 139.578 48.136 140.367 48.904C141.157 49.672 142.202 50.056 143.503 50.056C144.805 50.056 145.839 49.6827 146.607 48.936C147.397 48.168 147.791 47.1547 147.791 45.896C147.791 45.6613 147.919 45.544 148.175 45.544L151.119 45.672C151.226 45.672 151.311 45.704 151.375 45.768C151.461 45.832 151.503 45.9067 151.503 45.992C151.503 47.4427 151.173 48.7227 150.511 49.832C149.85 50.92 148.911 51.7627 147.695 52.36C146.479 52.9573 145.082 53.256 143.503 53.256ZM156.508 53C156.401 53 156.305 52.968 156.22 52.904C156.156 52.8187 156.124 52.7227 156.124 52.616V30.984C156.124 30.8773 156.156 30.792 156.22 30.728C156.305 30.6427 156.401 30.6 156.508 30.6H159.452C159.559 30.6 159.644 30.6427 159.708 30.728C159.793 30.792 159.836 30.8773 159.836 30.984V40.552C159.836 40.616 159.857 40.6587 159.9 40.68C159.943 40.7013 159.985 40.6907 160.028 40.648L168.348 30.824C168.476 30.6747 168.636 30.6 168.828 30.6H172.156C172.369 30.6 172.476 30.6747 172.476 30.824C172.476 30.888 172.444 30.9733 172.38 31.08L165.052 40.072C164.988 40.1573 164.977 40.232 165.02 40.296L172.892 52.552C172.935 52.68 172.956 52.7547 172.956 52.776C172.956 52.9253 172.849 53 172.636 53H169.276C169.084 53 168.935 52.9147 168.828 52.744L162.492 42.888C162.407 42.76 162.332 42.7493 162.268 42.856L159.9 45.608C159.857 45.6933 159.836 45.768 159.836 45.832V52.616C159.836 52.7227 159.793 52.8187 159.708 52.904C159.644 52.968 159.559 53 159.452 53H156.508Z" fill="#005640"/>
<rect x="1" y="1" width="207" height="78" rx="7" stroke="#005640" stroke-width="2"/>
</svg>
