<svg width="209" height="80" viewBox="0 0 209 80" fill="none" xmlns="http://www.w3.org/2000/svg">
<rect width="209" height="80" rx="8" fill="#005640"/>
<path d="M50.7438 30.984C50.7438 30.8773 50.7758 30.792 50.8398 30.728C50.9251 30.6427 51.0211 30.6 51.1278 30.6H54.0718C54.1784 30.6 54.2638 30.6427 54.3278 30.728C54.4131 30.792 54.4558 30.8773 54.4558 30.984V52.616C54.4558 52.7227 54.4131 52.8187 54.3278 52.904C54.2638 52.968 54.1784 53 54.0718 53H51.2238C51.0104 53 50.8611 52.9147 50.7758 52.744L41.5598 37.64C41.5171 37.576 41.4744 37.5547 41.4318 37.576C41.3891 37.576 41.3678 37.6187 41.3678 37.704L41.4318 52.616C41.4318 52.7227 41.3891 52.8187 41.3038 52.904C41.2398 52.968 41.1544 53 41.0478 53H38.1038C37.9971 53 37.9011 52.968 37.8158 52.904C37.7518 52.8187 37.7198 52.7227 37.7198 52.616V30.984C37.7198 30.8773 37.7518 30.792 37.8158 30.728C37.9011 30.6427 37.9971 30.6 38.1038 30.6H40.9518C41.1651 30.6 41.3144 30.6853 41.3998 30.856L50.5838 45.96C50.6264 46.024 50.6691 46.056 50.7118 46.056C50.7544 46.0347 50.7758 45.9813 50.7758 45.896L50.7438 30.984ZM74.6528 33.416C74.6528 33.5227 74.6101 33.6187 74.5248 33.704C74.4608 33.768 74.3754 33.8 74.2688 33.8H63.3568C63.2501 33.8 63.1968 33.8533 63.1968 33.96V39.944C63.1968 40.0507 63.2501 40.104 63.3568 40.104H70.6848C70.7914 40.104 70.8768 40.1467 70.9408 40.232C71.0261 40.296 71.0688 40.3813 71.0688 40.488V42.92C71.0688 43.0267 71.0261 43.1227 70.9408 43.208C70.8768 43.272 70.7914 43.304 70.6848 43.304H63.3568C63.2501 43.304 63.1968 43.3573 63.1968 43.464V49.64C63.1968 49.7467 63.2501 49.8 63.3568 49.8H74.2688C74.3754 49.8 74.4608 49.8427 74.5248 49.928C74.6101 49.992 74.6528 50.0773 74.6528 50.184V52.616C74.6528 52.7227 74.6101 52.8187 74.5248 52.904C74.4608 52.968 74.3754 53 74.2688 53H59.8688C59.7621 53 59.6661 52.968 59.5808 52.904C59.5168 52.8187 59.4848 52.7227 59.4848 52.616V30.984C59.4848 30.8773 59.5168 30.792 59.5808 30.728C59.6661 30.6427 59.7621 30.6 59.8688 30.6H74.2688C74.3754 30.6 74.4608 30.6427 74.5248 30.728C74.6101 30.792 74.6528 30.8773 74.6528 30.984V33.416ZM78.1342 53C77.9849 53 77.8782 52.968 77.8142 52.904C77.7716 52.8187 77.7929 52.7013 77.8782 52.552L84.2463 41.896C84.2889 41.832 84.2889 41.768 84.2463 41.704L77.8782 31.048C77.8356 30.92 77.8142 30.8453 77.8142 30.824C77.8142 30.6747 77.9209 30.6 78.1342 30.6H81.3342C81.5689 30.6 81.7289 30.6853 81.8142 30.856L86.4862 38.792C86.5503 38.92 86.6143 38.92 86.6783 38.792L91.3823 30.856C91.4676 30.6853 91.6169 30.6 91.8303 30.6H95.0303C95.1796 30.6 95.2756 30.6427 95.3183 30.728C95.3823 30.792 95.3716 30.8987 95.2863 31.048L88.9183 41.704C88.8969 41.768 88.8969 41.832 88.9183 41.896L95.2863 52.552C95.3289 52.68 95.3503 52.7547 95.3503 52.776C95.3503 52.9253 95.2436 53 95.0303 53H91.8303C91.6169 53 91.4676 52.9147 91.3823 52.744L86.6783 44.84C86.6143 44.712 86.5503 44.712 86.4862 44.84L81.7822 52.744C81.6969 52.9147 81.5476 53 81.3342 53H78.1342ZM114.141 30.6C114.248 30.6 114.333 30.6427 114.397 30.728C114.482 30.792 114.525 30.8773 114.525 30.984V33.448C114.525 33.5547 114.482 33.6507 114.397 33.736C114.333 33.8 114.248 33.832 114.141 33.832H108.253C108.146 33.832 108.093 33.8853 108.093 33.992V52.616C108.093 52.7227 108.05 52.8187 107.965 52.904C107.901 52.968 107.816 53 107.709 53H104.765C104.658 53 104.562 52.968 104.477 52.904C104.413 52.8187 104.381 52.7227 104.381 52.616V33.992C104.381 33.8853 104.328 33.832 104.221 33.832H98.557C98.4503 33.832 98.3543 33.8 98.269 33.736C98.205 33.6507 98.173 33.5547 98.173 33.448V30.984C98.173 30.8773 98.205 30.792 98.269 30.728C98.3543 30.6427 98.4503 30.6 98.557 30.6H114.141Z" fill="white"/>
<path d="M149.907 52.24L162.12 40L149.907 27.76L153.667 24L169.667 40L153.667 56L149.907 52.24Z" fill="white"/>
</svg>
